<?xml version="1.0" encoding="UTF-8" standalone="no"?>
<!-- Created with Inkscape (http://www.inkscape.org/) -->

<svg
   width="63.999996"
   height="63.999996"
   viewBox="0 0 16.933332 16.933332"
   version="1.1"
   id="svg1"
   xmlns="http://www.w3.org/2000/svg"
   xmlns:svg="http://www.w3.org/2000/svg">
  <defs
     id="defs1" />
  <g
     id="layer1"
     transform="translate(-11.24607,-8.9786012)">
    <g
       id="g1"
       transform="translate(1.5875)">
      <g
         id="text5">
        <path
           style="color:#000000;-inkscape-font-specification:'FreeMono, Bold';fill:#ffffff;-inkscape-stroke:none"
           d="m 22.451109,10.01449 q 0.762,0 0.9906,0.4318 0.254,0.4318 0.254,1.2446 v 2.2352 q 0,1.7018 -1.2446,1.7018 -0.2032,0 -0.381,-0.0254 -0.1524,-0.0508 -0.2794,-0.1016 -0.1016,-0.0762 -0.2032,-0.1778 -0.1016,-0.127 -0.1524,-0.2032 -0.0508,-0.0762 -0.1016,-0.2286 -0.0508,-0.1524 -0.0762,-0.2032 0,-0.0762 -0.0508,-0.2286 -0.0254,-0.1778 -0.0254,-0.2032 -0.1778,-0.762 -1.016,-1.2192 -0.8128,-0.4826 -2.0066,-0.4826 -1.1938,0 -2.032,0.5588 -0.8382,0.5588 -0.8382,1.3716 0,0.8636 0.8382,1.3462 0.8382,0.4572 1.9558,0.6096 1.1176,0.127 2.4892,0.508 1.3716,0.3556 2.159,0.9906 1.4986,1.1938 1.4986,3.174999 0,1.9812 -1.6002,3.2004 -1.6002,1.2192 -4.2164,1.2192 -2.1082,0 -3.9624,-0.9906 -0.508,0.6096 -1.016,0.6096 -1.295399,0 -1.295399,-1.6764 v -1.6764 q 0,-0.8382 0.2794,-1.2446 0.279399,-0.4318 0.990599,-0.4318 0.2286,0 0.4064,0.0508 0.2032,0.0508 0.3302,0.1524 0.127,0.1016 0.2032,0.2032 0.1016,0.0762 0.1524,0.2286 0.0762,0.1524 0.1016,0.2286 0.0254,0.0762 0.0508,0.2032 0.0508,0.127 0.0508,0.1524 0.1778,0.6858 1.2192,1.1684 1.0414,0.4826 2.3114,0.4826 1.4224,0 2.3876,-0.5588 0.9652,-0.5588 0.9652,-1.3716 0,-0.762 -0.762,-1.2192 -0.7366,-0.457199 -1.7272,-0.609599 -0.9652,-0.1524 -2.286,-0.4572 -1.2954,-0.3048 -2.0828,-0.7366 -0.9652,-0.5588 -1.524,-1.4986 -0.5588,-0.9398 -0.5588,-2.032 0,-1.9304 1.5748,-3.2004 1.5748,-1.2954 3.937,-1.2954 1.9558,0 3.302,0.8382 0.2032,-0.4826 0.4064,-0.6604 0.2032,-0.1778 0.5842,-0.1778 z"
           id="path6" />
        <path
           style="color:#000000;-inkscape-font-specification:'FreeMono, Bold';fill:#000000;-inkscape-stroke:none"
           d="m 18.158203,9.8378906 c -1.606019,0 -2.963932,0.4440314 -4.046875,1.3339844 -1.083859,0.87408 -1.640625,2.002993 -1.640625,3.337891 0,0.758214 0.196111,1.470713 0.583985,2.123046 0.387484,0.651679 0.918138,1.173927 1.585937,1.560547 l 0.002,0.002 h 0.002 c 0.545348,0.299062 1.253033,0.548279 2.126953,0.753907 h 0.002 c 0.88343,0.203868 1.647759,0.356492 2.296875,0.458984 h 0.002 c 0.640692,0.09857 1.191731,0.295191 1.660156,0.585938 h 0.002 v 0.002 c 0.470928,0.282556 0.675781,0.619156 0.675781,1.068359 0,0.472046 -0.26558,0.864797 -0.876953,1.21875 -0.610951,0.353709 -1.373661,0.535156 -2.298828,0.535156 -0.824323,0 -1.566881,-0.156565 -2.236328,-0.466797 C 15.329226,22.041621 14.97506,21.684775 14.875,21.298828 l 0.0059,0.04492 c 0,-0.06726 -0.01116,-0.07644 -0.02148,-0.107422 -0.009,-0.02712 -0.0225,-0.06067 -0.03711,-0.09766 -0.01647,-0.07994 -0.03369,-0.14989 -0.05274,-0.207031 -0.02044,-0.06131 -0.05658,-0.137342 -0.101562,-0.228516 -0.04223,-0.1267 -0.111291,-0.238253 -0.212891,-0.314453 -0.05692,-0.06905 -0.119637,-0.135554 -0.199219,-0.199219 -0.107776,-0.08622 -0.241345,-0.145061 -0.392578,-0.183594 -5.81e-4,-1.66e-4 -0.0014,1.66e-4 -0.002,0 -0.137269,-0.03901 -0.288358,-0.05859 -0.453125,-0.05859 -0.508048,0 -0.910929,0.167035 -1.134765,0.509765 -0.217692,0.317507 -0.310547,0.766149 -0.310547,1.34375 v 1.675781 c 0,0.581517 0.108687,1.040815 0.359375,1.365235 0.250687,0.32442 0.641484,0.488281 1.111328,0.488281 0.362804,0 0.699247,-0.255386 1.021484,-0.597656 1.236405,0.643729 2.556017,0.978515 3.957031,0.978515 1.771532,0 3.22056,-0.414976 4.324219,-1.255859 1.103435,-0.840712 1.669922,-1.971556 1.669922,-3.339844 0,-1.364268 -0.5297,-2.487175 -1.564453,-3.3125 -0.550384,-0.443858 -1.293832,-0.782114 -2.222656,-1.023437 l -0.0039,-0.002 c -0.918276,-0.254876 -1.755207,-0.425748 -2.509765,-0.511719 h -0.0039 c -0.724206,-0.09917 -1.35139,-0.296527 -1.886718,-0.587891 -0.519372,-0.299032 -0.75,-0.674693 -0.75,-1.193359 0,-0.481232 0.233808,-0.873971 0.759765,-1.224609 0.526642,-0.351095 1.16525,-0.529297 1.933594,-0.529297 0.772097,0 1.406747,0.156606 1.916016,0.458984 h 0.0039 l 0.002,0.002 c 0.526233,0.287036 0.82085,0.648875 0.927734,1.103516 0.0014,0.01336 0.0015,0.02744 0.0039,0.04687 0.0045,0.03566 0.01098,0.08273 0.01953,0.142578 l 0.002,0.01563 0.0059,0.01563 c 0.03108,0.09323 0.04102,0.160273 0.04102,0.171875 v 0.04297 l 0.01953,0.03711 c 0.0064,0.01283 0.03347,0.08088 0.06641,0.179688 0.03665,0.109966 0.07413,0.196152 0.123046,0.269531 0.03889,0.05833 0.09063,0.129891 0.160157,0.216797 l 0.0059,0.0078 0.0078,0.0059 c 0.07293,0.07293 0.147397,0.138868 0.222656,0.195312 l 0.01758,0.01367 0.02148,0.0078 c 0.08843,0.03537 0.184674,0.07067 0.289063,0.105468 l 0.01563,0.0059 0.01563,0.002 c 0.127846,0.01826 0.263434,0.02734 0.40625,0.02734 0.455064,-1e-6 0.835662,-0.169187 1.076172,-0.498047 0.240509,-0.32886 0.345703,-0.792094 0.345703,-1.38086 v -2.234375 c 0,-0.558668 -0.0866,-1.000805 -0.279297,-1.330078 -0.191208,-0.356914 -0.603134,-0.5234374 -1.142578,-0.5234374 -0.281438,0 -0.524589,0.066193 -0.701172,0.2207034 -0.142895,0.125033 -0.256475,0.350925 -0.373047,0.599609 -0.901763,-0.519717 -1.959201,-0.8203124 -3.21875,-0.8203124 z m 0,0.3535154 c 1.278667,0 2.344055,0.272006 3.208984,0.810547 l 0.175782,0.109375 0.08008,-0.189453 c 0.130313,-0.309493 0.2615,-0.512016 0.359375,-0.597656 0.09435,-0.08256 0.242188,-0.132813 0.46875,-0.132813 0.474681,0 0.719504,0.12165 0.833984,0.337891 l 0.002,0.0039 0.002,0.002 c 0.144811,0.246177 0.230469,0.632758 0.230469,1.15625 v 2.234375 c 0,0.545766 -0.102987,0.933469 -0.277344,1.171875 -0.174356,0.238406 -0.416346,0.353516 -0.791015,0.353516 -0.124613,0 -0.238965,-0.0087 -0.345703,-0.02344 -0.08048,-0.02716 -0.15437,-0.05331 -0.222657,-0.08008 -0.05457,-0.04194 -0.109555,-0.08839 -0.166015,-0.144531 -0.0014,-0.0014 -0.0025,-0.0025 -0.0039,-0.0039 -0.05855,-0.07379 -0.104182,-0.137718 -0.13086,-0.177735 -0.01881,-0.02822 -0.05095,-0.09231 -0.08203,-0.185546 -0.03391,-0.101723 -0.05547,-0.166585 -0.08203,-0.220704 -6.97e-4,-0.0014 -0.0013,-0.0045 -0.002,-0.0059 -0.0087,-0.0646 -0.01645,-0.125517 -0.04297,-0.205078 l 0.0078,0.0293 c -0.0084,-0.05868 -0.01357,-0.102694 -0.01758,-0.134766 -0.004,-0.03207 -0.0059,-0.0639 -0.0059,-0.04297 v -0.01953 l -0.0039,-0.01953 C 21.222819,13.656668 20.840361,13.204828 20.25,12.882813 c -0.573553,-0.339121 -1.2745,-0.503907 -2.091797,-0.503907 -0.823387,0 -1.537949,0.193919 -2.128906,0.587891 -0.591642,0.394428 -0.917969,0.915078 -0.917969,1.517578 0,0.6328 0.329507,1.155566 0.927734,1.5 h 0.002 l 0.002,0.002 c 0.580498,0.316636 1.253011,0.524914 2.015625,0.628906 h 0.002 0.002 c 0.733447,0.08335 1.553572,0.251861 2.460937,0.503907 h 0.002 0.002 c 0.897646,0.232723 1.593297,0.555015 2.091797,0.957031 h 0.002 v 0.002 c 0.961871,0.766236 1.43164,1.760785 1.43164,3.037109 0,1.27331 -0.501087,2.273708 -1.53125,3.058594 -1.029939,0.784715 -2.392643,1.183594 -4.109375,1.183594 -1.377838,0 -2.66728,-0.321443 -3.878906,-0.96875 l -0.126953,-0.06836 -0.0918,0.109375 c -0.320155,0.384186 -0.612748,0.546875 -0.880859,0.546875 -0.393755,0 -0.65092,-0.117182 -0.832031,-0.351562 -0.181112,-0.23438 -0.28711,-0.612355 -0.28711,-1.148438 v -1.675781 c 0,-0.5392 0.09385,-0.920249 0.248047,-1.144531 l 0.002,-0.002 0.002,-0.0039 c 0.149183,-0.230557 0.403362,-0.34961 0.841797,-0.34961 0.139334,0 0.260042,0.01459 0.359375,0.04297 l 0.002,0.002 h 0.002 c 0.117013,0.02925 0.203641,0.07112 0.263672,0.119141 0.07571,0.06057 0.132364,0.119193 0.171875,0.171875 l 0.01563,0.01953 0.01953,0.01563 c 0.03387,0.0254 0.0663,0.06608 0.0918,0.142578 l 0.0039,0.01172 0.0059,0.01172 c 0.04905,0.09809 0.08044,0.171012 0.0918,0.205078 0.01322,0.03964 0.02888,0.101409 0.04492,0.18164 l 0.0039,0.01563 0.0059,0.01563 c 0.01618,0.04045 0.0266,0.07197 0.0332,0.0918 0.0066,0.01982 0.0039,0.04642 0.0039,-0.0039 v 0.02148 l 0.0059,0.02148 c 0.137006,0.528452 0.596695,0.951631 1.316406,1.285156 0.719085,0.333234 1.515758,0.498047 2.384766,0.498047 0.971364,0 1.800581,-0.190674 2.476562,-0.582031 0.675559,-0.391113 1.052735,-0.911751 1.052735,-1.523438 0,-0.56585 -0.302349,-1.042145 -0.845703,-1.369141 -0.514327,-0.318968 -1.113483,-0.53025 -1.793589,-0.634882 -0.637288,-0.100625 -1.39477,-0.252798 -2.271484,-0.455078 h -0.002 C 15.999259,18.404798 15.318495,18.163154 14.814407,17.886719 14.197076,17.528523 13.714232,17.05134 13.357376,16.451172 13.000184,15.85044 12.82222,15.207816 12.82222,14.509766 c 0,-1.238967 0.493894,-2.243249 1.509765,-3.0625 l 0.002,-0.002 c 1.01645,-0.836112 2.281664,-1.253907 3.824219,-1.253907 z"
           id="path7" />
      </g>
      <g
         id="text6">
        <path
           style="color:#000000;-inkscape-font-specification:'Purisa, Oblique';fill:#ff6600;-inkscape-stroke:none"
           d="m 18.353542,20.533202 q 0,0.324555 -0.310444,0.818444 -0.310444,0.493888 -0.606777,0.493888 -0.112889,0 -0.324555,-0.09878 -0.197556,-0.112889 -0.254,-0.112889 -0.112889,0 -0.211667,-0.127 -0.08467,-0.127 -0.08467,-0.268111 0,-0.197556 0.296333,-0.578555 0.296333,-0.381 0.507999,-0.465667 0.127,-0.05644 0.338667,-0.05644 0.64911,0 0.64911,0.395111 z m -0.197555,-6.067773 q 0,-0.169333 0.08467,-0.254 0.09878,-0.09878 0.155222,-0.112889 0.05644,-0.01411 0.09878,-0.01411 0.197555,0 1.072443,0.112889 l 0.479778,0.05644 -0.155223,0.522111 q -0.112888,0.381 -0.691443,1.509888 -0.578556,1.128888 -0.945444,2.046109 -0.141111,0.381 -0.310444,0.381 -0.197556,0 -0.197556,-0.366889 0,-0.183444 0.04233,-0.507999 0.04233,-0.338667 0.112889,-0.917222 0.07056,-0.578555 0.127,-1.100666 0,-0.324555 0.09878,-0.691443 0.112889,-0.366889 0.112889,-0.437445 0,-0.05644 -0.04233,-0.09878 -0.04233,-0.05645 -0.04233,-0.127 z"
           id="path8" />
        <path
           style="color:#000000;-inkscape-font-specification:'Purisa, Oblique';fill:#ff6600;-inkscape-stroke:none"
           d="m 18.494141,13.732422 c -0.06742,0 -0.125831,0.009 -0.183594,0.02344 -0.178569,0.04464 -0.236642,0.123361 -0.320313,0.207032 -0.139598,0.139593 -0.1875,0.330265 -0.1875,0.501953 v 0.519531 c -0.005,0.0165 -0.0063,0.02339 -0.01172,0.04102 l -0.002,0.0059 -0.002,0.0059 c -0.07264,0.269808 -0.111328,0.531044 -0.111328,0.783204 l 0.002,-0.03906 c -0.03743,0.346299 -0.07813,0.713392 -0.125,1.097656 -0.04701,0.385499 -0.08514,0.690833 -0.113281,0.916016 -0.02913,0.223715 -0.04492,0.401875 -0.04492,0.550781 0,0.153956 0.01233,0.295772 0.0918,0.443359 0.07947,0.147588 0.281987,0.277344 0.457031,0.277344 0.188737,0 0.346078,-0.114363 0.4375,-0.226562 0.08959,-0.109953 0.147086,-0.232287 0.201172,-0.376953 l 0.002,-0.0039 c 0.239188,-0.597562 0.548618,-1.268168 0.929688,-2.011718 0.388802,-0.758639 0.621865,-1.249915 0.716797,-1.570313 l 0.273437,-0.923828 -0.892578,-0.105469 h -0.0039 c -0.582818,-0.07518 -0.91507,-0.115234 -1.113281,-0.115234 z m 0,0.705078 c 3.63e-4,0 0.0055,-2e-6 0.0059,0 0.0025,0.01005 0.0078,0.01977 0.0078,0.02734 v -0.02539 c 0.07202,9.28e-4 0.441504,0.03359 1.013672,0.107422 h 0.002 l 0.06641,0.0078 -0.03711,0.121093 c -0.05559,0.187602 -0.283412,0.702676 -0.666015,1.449219 -0.294612,0.574852 -0.509947,1.073324 -0.72461,1.570312 0.0256,-0.206296 0.0523,-0.424544 0.08984,-0.732421 0.04722,-0.387142 0.08913,-0.755621 0.126953,-1.105469 l 0.002,-0.01758 v -0.01953 c 0,-0.18058 0.02883,-0.380234 0.08789,-0.59961 0.03641,-0.11875 0.06564,-0.218222 0.08594,-0.296875 0.02111,-0.08179 0.03906,-0.11483 0.03906,-0.232422 0,-0.08263 -0.05366,-0.154009 -0.0957,-0.228515 -0.0019,0.0039 0.0041,-0.01389 -0.0078,-0.002 0.02306,-0.02306 -0.0099,-0.0069 -0.0039,-0.0098 l 0.0098,0.0059 c -0.0033,-0.0057 -0.0043,-0.01203 -0.0078,-0.01758 0.0013,-1.88e-4 0.01062,-0.002 0.0059,-0.002 z m -0.789063,5.347656 c -0.170316,0 -0.327136,0.02078 -0.476562,0.08594 -0.254575,0.103799 -0.435386,0.298342 -0.648438,0.572265 -0.215696,0.277324 -0.371094,0.48683 -0.371094,0.794922 0,0.164633 0.05463,0.330001 0.144532,0.464844 l 0.0059,0.0098 0.0078,0.0098 c 0.105837,0.136076 0.282684,0.263672 0.490235,0.263672 -0.09878,0 -0.07539,-0.01289 -0.05078,-0.002 0.02461,0.01094 0.07129,0.03432 0.130859,0.06836 l 0.01172,0.0078 0.01367,0.0059 c 0.162889,0.07602 0.294501,0.132813 0.472656,0.132813 0.393542,0 0.672373,-0.288081 0.90625,-0.660157 0.225491,-0.358736 0.365234,-0.677009 0.365234,-1.005859 0,-0.228299 -0.134621,-0.477495 -0.332031,-0.597656 -0.19741,-0.120162 -0.417763,-0.150391 -0.669922,-0.150391 z m 0,0.705078 c 0.17472,0 0.2693,0.03425 0.292969,0.04687 -8.65e-4,0.104789 -0.06668,0.329089 -0.253906,0.626953 -0.180049,0.286441 -0.307026,0.328126 -0.308594,0.328125 0.02764,0 -0.0545,-0.0088 -0.173828,-0.06445 -0.06047,-0.03394 -0.117731,-0.06469 -0.169922,-0.08789 -0.04004,-0.01779 -0.09997,-0.02762 -0.15625,-0.03906 -0.01526,-0.02548 -0.02148,-0.04221 -0.02148,-0.0625 0,0.04468 0.04324,-0.130653 0.222657,-0.361328 0.180339,-0.231865 0.334976,-0.345709 0.359375,-0.355469 l 0.0078,-0.002 0.0059,-0.002 c 0.0182,-0.0081 0.08556,-0.02734 0.195312,-0.02734 z m -0.847656,0.791016 c 0.05703,0 0.09227,0.04302 0.06641,0.0098 l 0.0059,0.0078 c -0.02692,-0.005 -0.03027,-0.01758 -0.07227,-0.01758 z"
           id="path9" />
      </g>
      <text
         xml:space="preserve"
         style="font-weight:bold;font-size:22.5778px;font-family:FreeMono;-inkscape-font-specification:'FreeMono, Bold';fill:#ff6600;stroke:#000000;stroke-width:0.705556"
         x="4.0394864"
         y="-4.4083319"
         id="text4"><tspan
           id="tspan4"
           style="stroke-width:0.705556"
           x="4.0394864"
           y="-4.4083319"></tspan></text>
    </g>
  </g>
</svg>
