<?xml version="1.0" encoding="UTF-8" standalone="no"?>
<!-- Created with Inkscape (http://www.inkscape.org/) -->

<svg
   width="119.42769mm"
   height="28.651342mm"
   viewBox="0 0 119.42769 28.651342"
   version="1.1"
   id="svg1"
   xmlns="http://www.w3.org/2000/svg"
   xmlns:svg="http://www.w3.org/2000/svg">
  <defs
     id="defs1" />
  <g
     id="layer1"
     transform="translate(-11.24607,-8.9786012)">
    <path
       d="m 21.734859,9.1549907 q 0.762,0 0.9906,0.4318 0.254,0.4318003 0.254,1.2446003 v 2.2352 q 0,1.7018 -1.2446,1.7018 -0.2032,0 -0.381,-0.0254 -0.1524,-0.0508 -0.2794,-0.1016 -0.1016,-0.0762 -0.2032,-0.1778 -0.1016,-0.127 -0.1524,-0.2032 -0.0508,-0.0762 -0.1016,-0.2286 -0.0508,-0.1524 -0.0762,-0.2032 0,-0.0762 -0.0508,-0.2286 -0.0254,-0.1778 -0.0254,-0.2032 -0.1778,-0.762 -1.016,-1.2192 -0.8128,-0.4826 -2.0066,-0.4826 -1.1938,0 -2.032,0.5588 -0.8382,0.5588 -0.8382,1.3716 0,0.8636 0.8382,1.3462 0.8382,0.4572 1.9558,0.6096 1.1176,0.127 2.4892,0.508 1.3716,0.3556 2.159,0.9906 1.4986,1.1938 1.4986,3.174999 0,1.9812 -1.6002,3.2004 -1.6002,1.2192 -4.2164,1.2192 -2.1082,0 -3.9624,-0.9906 -0.508,0.6096 -1.016,0.6096 -1.2954,0 -1.2954,-1.6764 v -1.6764 q 0,-0.8382 0.2794,-1.244599 0.2794,-0.4318 0.9906,-0.4318 0.2286,0 0.4064,0.0508 0.2032,0.0508 0.3302,0.1524 0.127,0.1016 0.2032,0.2032 0.1016,0.0762 0.1524,0.2286 0.0762,0.152399 0.1016,0.228599 0.0254,0.0762 0.0508,0.2032 0.0508,0.127 0.0508,0.1524 0.1778,0.6858 1.2192,1.1684 1.0414,0.4826 2.3114,0.4826 1.4224,0 2.3876,-0.5588 0.9652,-0.5588 0.9652,-1.3716 0,-0.761999 -0.762,-1.219199 -0.7366,-0.4572 -1.7272,-0.6096 -0.9652,-0.1524 -2.286,-0.4572 -1.2954,-0.3048 -2.0828,-0.7366 -0.9652,-0.5588 -1.524,-1.4986 -0.5588,-0.9398 -0.5588,-2.032 0,-1.9304 1.5748,-3.2004 1.5748,-1.2954003 3.937,-1.2954003 1.9558,0 3.302,0.8382 0.2032,-0.4826 0.4064,-0.6604 0.2032,-0.1778 0.5842,-0.1778 z M 38.52422,19.111791 q 0,2.463799 -1.7272,4.013199 -1.7272,1.5494 -4.0894,1.5494 -2.3622,0 -4.0894,-1.5748 -1.7272,-1.5748 -1.7272,-3.987799 v -7.0612 q -1.5494,-0.0508 -1.5494,-1.27 0,-0.7366 0.4318,-0.9906003 0.4318,-0.2794 1.2446,-0.2794 h 3.302 q 0.8128,0 1.2446,0.254 0.4318,0.2540003 0.4318,1.0160003 0,1.27 -1.6764,1.27 h -0.889 v 7.2898 q 0,1.168399 0.9652,1.981199 0.9652,0.8128 2.3114,0.8128 1.3462,0 2.3114,-0.8128 0.9652,-0.8128 0.9652,-1.981199 v -7.2898 h -0.889 q -1.6764,0 -1.6764,-1.27 0,-0.7366 0.4318,-0.9906003 0.4318,-0.2794 1.2446,-0.2794 h 3.302 q 0.8382,0 1.2446,0.2794 0.4318,0.2540003 0.4318,0.9906003 0,1.27 -1.5494,1.27 z m 3.80996,5.206999 q -1.6764,0 -1.6764,-1.27 0,-1.27 1.6764,-1.27 h 0.381 v -9.728199 h -0.381 q -1.6764,0 -1.6764,-1.27 0,-0.7366 0.4318,-0.9906003 0.4572,-0.2794 1.2446,-0.2794 h 6.4262 q 2.159,0 3.556,1.1938003 1.4224,1.1938 1.4224,2.9972 0,1.6256 -1.6002,2.8702 2.6924,1.3462 2.6924,3.682999 0,1.8288 -1.3716,2.9464 -1.3716,1.1176 -3.6322,1.1176 z m 2.921,-8.686799 h 2.8702 q 1.3716,0 2.2098,-0.5334 0.8636,-0.5588 0.8636,-1.4224 0,-0.762 -0.6858,-1.1938 -0.6858,-0.4318 -1.8796,-0.4318 h -3.3782 z m 7.0358,4.775199 q 0,-1.015999 -0.9906,-1.625599 -0.9906,-0.6096 -2.6162,-0.6096 h -3.429 v 3.606799 h 4.445 q 2.5908,0 2.5908,-1.3716 z m 13.817562,1.3716 q 1.6764,0 1.6764,1.27 0,1.27 -1.6764,1.27 h -5.8674 q -1.6764,0 -1.6764,-1.27 0,-0.7366 0.4318,-0.9906 0.4318,-0.2794 1.2446,-0.2794 h 1.651 v -9.728199 h -2.7178 v 2.3622 q 0,1.6764 -1.27,1.6764 -1.27,0 -1.27,-1.6764 V 9.5105907 h 13.1064 v 4.9022003 q 0,0.8128 -0.2794,1.2446 -0.254,0.4318 -0.9906,0.4318 -1.27,0 -1.27,-1.6764 v -2.3622 h -2.7686 v 9.728199 z m 16.15436,0 q 0.8128,0 1.2446,0.2794 0.4318,0.254 0.4318,0.9906 0,1.27 -1.6764,1.27 h -7.6708 q -1.6764,0 -1.6764,-1.27 0,-0.7366 0.4318,-0.9906 0.4318,-0.2794 1.2446,-0.2794 h 2.5654 v -9.728199 h -2.5654 q -1.6764,0 -1.6764,-1.27 0,-0.7366 0.4318,-0.9906003 0.4318,-0.2794 1.2446,-0.2794 h 7.6708 q 0.8128,0 1.2446,0.2794 0.4318,0.2540003 0.4318,0.9906003 0,1.27 -1.6764,1.27 h -2.5654 v 9.728199 z m 14.325563,0 q 1.6764,0 1.6764,1.27 0,1.27 -1.6764,1.27 h -5.8674 q -1.6764,0 -1.6764,-1.27 0,-0.7366 0.4318,-0.9906 0.4318,-0.2794 1.2446,-0.2794 h 1.651 v -9.728199 h -2.7178 v 2.3622 q 0,1.6764 -1.27,1.6764 -1.27,0 -1.27,-1.6764 V 9.5105907 h 13.106405 v 4.9022003 q 0,0.8128 -0.279405,1.2446 -0.254,0.4318 -0.9906,0.4318 -1.27,0 -1.27,-1.6764 v -2.3622 h -2.7686 v 9.728199 z m 17.932355,-4.038599 q 0.7366,0 0.9906,0.4318 0.2794,0.4318 0.2794,1.27 v 4.876799 h -11.98879 q -1.6764,0 -1.6764,-1.27 0,-0.7366 0.4318,-0.9906 0.4318,-0.2794 1.2446,-0.2794 h 1.44779 v -9.728199 h -1.44779 q -1.6764,0 -1.6764,-1.27 0,-0.7366 0.4318,-0.9906003 0.4318,-0.2794 1.2446,-0.2794 h 5.43559 q 1.6764,0 1.6764,1.2700003 0,1.27 -1.6764,1.27 h -1.4478 v 9.728199 h 5.461 v -2.336799 q 0,-1.7018 1.27,-1.7018 z m 13.43656,2.717799 q 0,-1.701799 1.27,-1.701799 1.27,0 1.27,1.701799 v 3.8608 h -11.9634 q -1.6764,0 -1.6764,-1.27 0,-1.27 1.6764,-1.27 h 0.381 v -9.728199 h -0.381 q -1.6764,0 -1.6764,-1.27 0,-0.7366 0.4318,-0.9906003 0.4318,-0.2794 1.2446,-0.2794 h 11.4046 v 3.8100003 q 0,1.7018 -1.27,1.7018 -1.27,0 -1.27,-1.7018 v -1.27 h -5.9436 v 3.5814 h 2.159 v -0.1778 q 0,-1.7018 1.2446,-1.7018 1.27,0 1.27,1.7018 v 2.8702 q 0,1.6764 -1.2446,1.6764 -1.27,0 -1.27,-1.6764 v -0.1778 h -2.159 v 3.632199 h 6.5024 z"
       id="text2"
       style="font-weight:bold;font-size:25.4px;font-family:FreeMono;-inkscape-font-specification:'FreeMono, Bold';fill:#ffffff;stroke:#000000;stroke-width:0.352778"
       aria-label="SUBTITLE" />
    <path
       d="m 64.349093,30.405055 q 0.04233,0 0.141111,-0.479778 0.112889,-0.479777 0.197555,-1.114777 0.08467,-0.634999 0.08467,-1.001888 0,-1.072443 -0.620889,-1.072443 -0.846666,0 -2.173109,0.550332 -1.326443,0.536222 -1.552221,0.536222 -0.141111,0 -0.127,-0.141111 0.04233,-0.197555 0.155222,-0.338666 0.112889,-0.141111 0.352778,-0.268111 0.254,-0.127 0.479777,-0.211667 0.225778,-0.08467 0.705555,-0.239888 0.493889,-0.169334 0.846666,-0.310445 0.832555,-0.296333 1.354666,-0.296333 0.917221,0 1.227665,1.016 0.127,0.451555 0.127,0.663221 0,0.381 -0.437444,2.582332 -0.211666,1.072443 -0.338666,1.80622 -0.127,0.719667 -0.141111,0.917222 l -0.01411,0.183444 q -0.04233,0.197556 -0.268111,0.423333 -0.225778,0.225778 -0.310444,0.225778 -0.254,0 -0.254,-0.691444 0,-0.211667 0.02822,-0.564444 0.02822,-0.352778 0.02822,-0.423333 0,-0.112889 -0.02822,-0.112889 -0.04233,0 -0.155222,0.155222 -0.395111,0.479778 -1.368777,1.030111 -0.959555,0.550332 -1.53811,0.550332 -0.352777,0 -0.804332,-0.126999 -0.437445,-0.141111 -0.620889,-0.296334 -0.155222,-0.155222 -0.155222,-0.64911 0,-0.945444 0.465666,-1.495777 0.479778,-0.564444 1.453444,-1.044221 1.072443,-0.522111 1.834443,-0.522111 0.338666,0 0.536222,0.112889 0.197555,0.112889 0.282222,0.239889 0.09878,0.112888 0.169333,0.112888 0.07056,0 0.239888,0.155223 0.169334,0.141111 0.197556,0.141111 z m -4.501441,2.158998 q 0,0.254 0.268111,0.409222 0.282222,0.141111 0.550333,0.141111 0.479777,0 1.255888,-0.338667 0.790221,-0.352777 0.832555,-0.507999 0.02822,-0.09878 0.564444,-0.550333 0.536221,-0.465666 0.536221,-0.649111 0,-0.08467 -0.05644,-0.183444 -0.05644,-0.112889 -0.183444,-0.225778 -0.127,-0.127 -0.423333,-0.197555 -0.296333,-0.08467 -0.705555,-0.08467 -1.171222,0 -1.904999,0.733778 -0.733777,0.733777 -0.733777,1.453443 z m 13.461986,-4.967107 q 0,-0.268111 -0.08467,-0.451556 -0.08467,-0.197555 -0.169334,-0.26811 -0.08467,-0.08467 -0.155222,-0.08467 -0.296333,0 -1.15711,1.001888 -0.860777,1.001888 -1.566332,2.130776 -0.663222,1.058333 -0.931333,1.594554 -0.268111,0.536222 -0.550333,1.439333 -0.465666,1.439332 -0.536221,1.439332 -0.09878,0 -0.268111,-0.239889 -0.08467,-0.112889 -0.08467,-0.381 0,-0.282222 0.09878,-0.931332 0.09878,-0.663222 0.268111,-1.904999 0.183444,-1.255888 0.324555,-2.596442 0.169333,-1.622777 0.282222,-2.158998 0.112889,-0.536222 0.395111,-0.536222 0.183444,0 0.183444,0.395111 0,0.39511 -0.211666,2.525887 -0.197556,2.116665 -0.197556,2.271887 0.112889,-0.112889 0.649111,-1.142999 0.479777,-0.945444 0.761999,-1.368777 0.296333,-0.423333 0.959555,-1.128888 1.326444,-1.425221 1.890888,-1.425221 0.380999,0 0.592666,0.493888 0.268111,0.578555 0.268111,1.072444 0,0.423333 -0.225778,1.679221 -0.211666,1.255888 -0.423333,2.300109 l -0.211666,1.044221 q -0.211667,1.001889 -0.366889,1.255888 -0.155222,0.254 -0.465666,0.254 -0.155222,0 -0.155222,-0.169333 0,-0.112889 0.26811,-1.213555 0.268111,-1.114777 0.536222,-2.539998 0.282222,-1.439332 0.282222,-2.356553 z m 4.06399,-0.719666 q 0,0.253999 -0.409222,2.046109 -0.409222,1.79211 -0.409222,2.412998 0,0.522111 0.268111,0.522111 0.268111,0 1.015999,-0.663222 0.747888,-0.663222 1.128888,-1.241777 0.465666,-0.705555 0.874888,-1.693332 0.423333,-1.001888 0.691444,-1.523998 0.268111,-0.522111 0.578555,-0.522111 0.127,0 0.225778,0.09878 0.09878,0.08467 0.09878,0.239889 0,0.239889 -0.268111,0.762 -0.254,0.507999 -0.649111,1.453443 -0.381,0.931333 -0.606777,2.017887 -0.141111,0.620889 -0.141111,0.860777 l 0.01411,0.409222 0.493888,-0.225777 q 0.381,-0.155222 0.578555,-0.155222 0.310445,0 0.310445,0.211666 0,0.366889 -0.719666,0.705555 l -0.649111,0.296333 -0.268111,1.580443 q -0.09878,0.620889 -0.268111,1.241777 -0.169333,0.635 -0.296333,0.987777 -0.112889,0.352778 -0.169333,0.409222 -0.155222,0.169333 -0.395111,0.169333 -0.296333,0 -0.832555,-0.253999 -0.310444,-0.155223 -0.465666,-0.338667 -0.141111,-0.183444 -0.239889,-0.536222 -0.141111,-0.479777 -0.141111,-0.931332 0,-0.324556 0.07056,-0.564444 0.07055,-0.225778 0.141111,-0.338667 0.07055,-0.112888 0.296333,-0.380999 0.225777,-0.268111 0.366888,-0.465667 0.183445,-0.239888 0.493889,-0.395111 0.324555,-0.169333 0.423333,-0.253999 0.141111,-0.112889 0.254,-0.183445 0.127,-0.07055 0.155222,-0.09878 0.04233,-0.02822 0.05644,-0.09878 v -0.05644 q 0.01411,-0.04233 0.01411,-0.112889 0.01411,-0.07056 0.01411,-0.155222 0.01411,-0.09878 0.01411,-0.197556 0.01411,-0.112889 0.01411,-0.197555 0,-0.395111 -0.112889,-0.395111 -0.08467,0 -0.465667,0.352778 -0.366888,0.338666 -0.888999,0.691443 -0.522111,0.338667 -0.973666,0.338667 -0.465666,0 -0.677333,-0.381 -0.197555,-0.395111 -0.197555,-0.790221 0,-0.451556 0.352777,-2.116665 0.352778,-1.594555 0.578556,-2.17311 0.239888,-0.592666 0.536221,-0.592666 0.183445,0 0.183445,0.225778 z m 0.90311,7.069661 q -0.818444,0.959555 -0.818444,1.439332 0,0.268111 0.282222,0.634999 0.282222,0.366889 0.465667,0.366889 0.211666,0 0.423333,-0.987777 0.05644,-0.282222 0.05644,-0.677333 0.01411,-0.395111 0.02822,-0.536222 l 0.08467,-0.846666 z m 8.339648,-9.242771 q 0.296333,-0.183444 0.479777,-1.862665 0.197556,-1.679221 0.296333,-1.904999 0.09878,-0.225777 0.239889,-0.352777 0.155222,-0.141111 0.282222,-0.141111 0.197555,0 0.197555,0.211666 0,0.296333 -0.211666,1.961443 -0.211667,1.66511 -0.211667,1.806221 0.01411,0.01411 0.04233,0.01411 0.112889,0 0.677333,-0.112889 0.564444,-0.127 0.917221,-0.127 0.635,0 0.635,0.268111 0,0.211667 -0.395111,0.366889 -0.395111,0.155222 -1.298221,0.366889 l -0.747889,0.169333 -0.409222,2.384776 q -0.409222,2.384776 -0.663221,4.854218 -0.112889,1.044222 -0.197556,1.312333 -0.08467,0.26811 -0.366888,0.26811 -0.352778,0 -0.352778,-0.747888 0,-0.338666 0.112889,-0.874888 0.112889,-0.522111 0.183444,-1.058333 0.07056,-0.550333 0.197556,-1.707443 0.141111,-1.15711 0.310444,-2.356553 0.05644,-0.423333 0.112889,-0.832555 0.07055,-0.409222 0.08467,-0.578556 0.02822,-0.169333 0.02822,-0.239888 0,-0.112889 -0.05644,-0.112889 -0.225778,0 -1.128888,0.155222 -0.888999,0.155222 -1.100666,0.155222 -0.352777,0 -0.352777,-0.225777 0,-0.324556 0.52211,-0.508 0.536222,-0.183444 1.241777,-0.296333 0.719666,-0.127 0.931333,-0.254 z m 4.021651,9.369771 q -0.05644,0 -0.112889,-0.02822 -0.05644,-0.01411 -0.141111,-0.141111 -0.07056,-0.127 -0.07056,-0.324555 0,-0.282222 0.155222,-1.03011 0.211666,-0.959555 0.536221,-3.443109 0.338667,-2.497664 0.635,-4.459107 0.310444,-1.961443 0.536222,-2.271887 0.225777,-0.296334 0.380999,-0.296334 0.225778,0 0.225778,0.437445 0,0.282222 -0.07055,0.832554 -0.07056,0.550333 -0.268111,1.904999 -0.197556,1.354666 -0.352778,2.511776 l -0.225777,1.66511 0.380999,-0.550333 q 0.423333,-0.635 1.735666,-1.66511 1.326443,-1.03011 1.693332,-1.03011 0.380999,0 0.719666,0.423333 0.338666,0.423333 0.338666,0.832555 0,0.507999 -0.606777,3.414886 -0.564444,2.624664 -0.691444,2.864553 -0.09878,0.141111 -0.254,0.141111 -0.112889,0 -0.169333,-0.05644 -0.04233,-0.05645 -0.04233,-0.239889 0,-0.338666 0.39511,-2.582331 0.409222,-2.243665 0.409222,-3.118553 0,-0.183445 -0.01411,-0.254 l -0.08467,-0.705555 -0.973666,0.761999 q -0.818444,0.635 -1.523999,1.425221 -0.705555,0.776111 -1.001888,1.382888 -0.211667,0.423333 -0.508,1.396999 -0.296333,0.959555 -0.550333,1.580443 -0.254,0.620889 -0.479777,0.620889 z m 9.143968,-8.353772 q 0.239885,-0.169333 0.380995,-0.169333 0.23989,0 0.23989,0.578555 0,0.874888 -0.536218,3.993442 -0.522111,3.104442 -0.733777,3.316108 -0.211667,0.211667 -0.465667,0.211667 -0.183444,0 -0.282222,-0.08467 -0.09878,-0.09878 -0.09878,-0.225778 0,-0.310444 0.409221,-2.935108 0.423333,-2.624665 0.635,-3.626553 0.183444,-0.874888 0.451555,-1.058333 z m 0.606775,-3.217331 q 0,-0.239888 0.22578,-0.465666 0.22578,-0.225777 0.36689,-0.225777 0.11289,0 0.31044,0.169333 0.19756,0.155222 0.19756,0.395111 0,0.239888 -0.16933,0.437444 -0.16934,0.183444 -0.39512,0.183444 -0.19755,0 -0.36688,-0.141111 -0.16934,-0.141111 -0.16934,-0.352778 z m 7.9022,5.094108 q 0,-0.268111 -0.0847,-0.451556 -0.0847,-0.197555 -0.16933,-0.26811 -0.0847,-0.08467 -0.15523,-0.08467 -0.29633,0 -1.15711,1.001888 -0.86077,1.001888 -1.56633,2.130776 -0.66322,1.058333 -0.93133,1.594554 -0.26811,0.536222 -0.55033,1.439333 -0.46567,1.439332 -0.53623,1.439332 -0.0988,0 -0.26811,-0.239889 -0.0847,-0.112889 -0.0847,-0.381 0,-0.282222 0.0988,-0.931332 0.0988,-0.663222 0.26812,-1.904999 0.18344,-1.255888 0.32455,-2.596442 0.16933,-1.622777 0.28222,-2.158998 0.11289,-0.536222 0.39511,-0.536222 0.18345,0 0.18345,0.395111 0,0.39511 -0.21167,2.525887 -0.19755,2.116665 -0.19755,2.271887 0.11289,-0.112889 0.64911,-1.142999 0.47977,-0.945444 0.762,-1.368777 0.29633,-0.423333 0.95955,-1.128888 1.32644,-1.425221 1.89089,-1.425221 0.381,0 0.59266,0.493888 0.26812,0.578555 0.26812,1.072444 0,0.423333 -0.22578,1.679221 -0.21167,1.255888 -0.42333,2.300109 l -0.21167,1.044221 q -0.21167,1.001889 -0.36689,1.255888 -0.15522,0.254 -0.46567,0.254 -0.15522,0 -0.15522,-0.169333 0,-0.112889 0.26811,-1.213555 0.26811,-1.114777 0.53622,-2.539998 0.28223,-1.439332 0.28223,-2.356553 z m 7.47887,8.833548 q 0.127,0 0.23989,-0.02822 0.11289,-0.01411 0.18345,-0.05644 0.0847,-0.04233 0.14111,-0.08467 0.0705,-0.04233 0.11289,-0.112889 0.0423,-0.05644 0.0705,-0.112888 0.0282,-0.04233 0.0423,-0.112889 0.0282,-0.05644 0.0282,-0.09878 0.0141,-0.02822 0.0282,-0.07055 v -0.04233 q 0.21166,-1.001888 0.28222,-1.749776 0.0847,-0.733777 0.0847,-1.255888 0.0141,-0.536222 0.0564,-0.790222 0.15522,-1.114777 0.15522,-1.298221 0,-0.141111 -0.0423,-0.141111 -0.0564,0 -0.26811,0.254 -0.46567,0.522111 -1.397,1.171221 -0.93133,0.649111 -1.49578,0.846666 -0.64911,0.239889 -1.38288,0.239889 -0.45156,0 -0.69145,-0.112889 -0.22578,-0.112889 -0.57855,-0.479777 -0.31045,-0.338667 -0.42334,-0.606778 -0.11288,-0.282222 -0.11288,-0.733777 0,-1.001888 0.21166,-1.396999 0.18345,-0.380999 0.77611,-1.185332 0.60678,-0.804333 1.04422,-1.255888 0.381,-0.395111 1.29822,-0.917222 0.91723,-0.536221 1.58045,-0.733777 0.70555,-0.211666 1.53811,-0.211666 0.94544,0 1.53811,0.296333 0.60678,0.282222 0.60678,0.90311 0,0.437444 -0.40923,1.213555 -0.39511,0.761999 -0.49389,1.185332 -0.0705,0.366889 -0.66322,4.670774 l -0.40922,2.920998 -0.57855,0.395111 q -0.47978,0.324555 -0.87489,0.324555 -0.73378,0 -1.69333,-0.352777 -0.95956,-0.352778 -1.63689,-0.832555 -0.67733,-0.465666 -0.67733,-0.790222 0,-0.310444 0.53622,-0.90311 0.53622,-0.592666 0.81844,-0.592666 0.26811,0 0.26811,0.155222 0,0.112889 -0.23989,0.479777 -0.22577,0.381 -0.22577,0.564444 0,0.366889 0.43744,0.620889 0.43744,0.253999 0.77611,0.253999 0.21167,0 0.635,0.282222 0.43744,0.282222 0.80433,0.282222 z m -4.00755,-6.406439 q -0.0706,0.324555 -0.0706,0.592666 0,0.663222 0.28223,1.128888 0.29633,0.451555 0.81844,0.451555 0.86078,0 2.01789,-0.77611 1.17122,-0.790222 2.032,-1.961443 0.49388,-0.677333 0.97366,-1.66511 0.49389,-1.001888 0.49389,-1.382888 0,-0.09878 -0.0564,-0.155222 -0.28223,-0.169333 -0.98778,-0.169333 -0.66322,0 -1.143,0.141111 -1.31233,0.352777 -2.75166,1.650999 -1.42523,1.298221 -1.60867,2.144887 z m 12.06497,2.398887 q 0,0.324555 -0.31044,0.818444 -0.31045,0.493888 -0.60678,0.493888 -0.11289,0 -0.32455,-0.09878 -0.19756,-0.112888 -0.254,-0.112888 -0.11289,0 -0.21167,-0.127 -0.0847,-0.127 -0.0847,-0.268111 0,-0.197556 0.29634,-0.578555 0.29633,-0.381 0.508,-0.465667 0.127,-0.05644 0.33866,-0.05644 0.64911,0 0.64911,0.395111 z m -0.19755,-6.067773 q 0,-0.169333 0.0847,-0.254 0.0988,-0.09878 0.15523,-0.112889 0.0564,-0.01411 0.0988,-0.01411 0.19756,0 1.07245,0.112889 l 0.47977,0.05644 -0.15522,0.522111 q -0.11289,0.381 -0.69144,1.509888 -0.57856,1.128888 -0.94545,2.046109 -0.14111,0.381 -0.31044,0.381 -0.19755,0 -0.19755,-0.366889 0,-0.183444 0.0423,-0.507999 0.0423,-0.338667 0.11289,-0.917222 0.0705,-0.578555 0.127,-1.100666 0,-0.324555 0.0988,-0.691443 0.11289,-0.366889 0.11289,-0.437445 0,-0.05644 -0.0423,-0.09878 -0.0423,-0.05645 -0.0423,-0.127 z"
       id="text1"
       style="font-style:oblique;font-size:14.1111px;font-family:Purisa;-inkscape-font-specification:'Purisa, Oblique';fill:#ff6600;stroke:#ff6600;stroke-width:0.705556"
       aria-label="anything!" />
  </g>
</svg>
